<?xml version="1.0" encoding="UTF-8"?>
<svg width="323px" height="323px" viewBox="0 0 323 323" version="1.1" xmlns="http://www.w3.org/2000/svg" xmlns:xlink="http://www.w3.org/1999/xlink">
    <title>2023</title>
    <g id="Page-1" stroke="none" stroke-width="1" fill="none" fill-rule="evenodd">
        <g id="Artboard" transform="translate(-88.000000, -88.000000)">
            <g id="2023" transform="translate(88.000000, 88.000000)">
                <path d="M161.5,2.8814484 L182.914713,60.7516946 L226.015977,16.5947427 L222.041342,78.1719919 L279.376556,55.3634724 L250.699822,110.000459 L312.355207,112.484172 L263.934843,150.733664 L319.249623,178.080153 L259.457949,193.328467 L298.867695,240.809276 L238.043235,230.419839 L254.733645,289.825104 L203.393501,255.594344 L194.478651,316.652356 L161.5,264.499082 L128.521349,316.652356 L119.606499,255.594344 L68.2663546,289.825104 L84.9567648,230.419839 L24.1323048,240.809276 L63.5420514,193.328467 L3.75037742,178.080153 L59.0651573,150.733664 L10.6447929,112.484172 L72.300178,110.000459 L43.6234442,55.3634724 L100.958658,78.1719919 L96.9840228,16.5947427 L140.085287,60.7516946 L161.5,2.8814484 Z" id="Star" stroke="#FFFFFF" stroke-width="2" fill="#000000"></path>
                <path d="M116.399,180 L116.399,172.179 L94.817,172.179 C95.015,171.739 95.5485,171.101 96.4175,170.265 C97.2865,169.429 98.458,168.406 99.932,167.196 C101.406,165.986 103.144,164.589 105.146,163.005 C106.334,162.059 107.599,160.9975 108.941,159.8205 C110.283,158.6435 111.5425,157.34 112.7195,155.91 C113.8965,154.48 114.8535,152.9235 115.5905,151.2405 C116.3275,149.5575 116.696,147.748 116.696,145.812 C116.696,142.93 116.08,140.345 114.848,138.057 C113.616,135.769 111.7735,133.954 109.3205,132.612 C106.8675,131.27 103.815,130.599 100.163,130.599 C96.401,130.599 93.2165,131.2975 90.6095,132.6945 C88.0025,134.0915 86.0225,136.088 84.6695,138.684 C83.3165,141.28 82.64,144.36 82.64,147.924 L82.64,147.924 L92.87,147.924 C92.87,146.054 93.09,144.4205 93.53,143.0235 C93.97,141.6265 94.7125,140.5375 95.7575,139.7565 C96.8025,138.9755 98.216,138.585 99.998,138.585 C102.22,138.585 103.8425,139.234 104.8655,140.532 C105.8885,141.83 106.4,143.557 106.4,145.713 C106.4,147.429 105.9215,149.0625 104.9645,150.6135 C104.0075,152.1645 102.803,153.6275 101.351,155.0025 C99.899,156.3775 98.403,157.703 96.863,158.979 C95.565,160.057 94.1515,161.2285 92.6225,162.4935 C91.0935,163.7585 89.636,164.996 88.25,166.206 C86.864,167.416 85.687,168.4995 84.719,169.4565 C83.751,170.4135 83.168,171.134 82.97,171.618 L82.97,171.618 L82.97,180 L116.399,180 Z M140.165469,180.792 C143.267469,180.792 145.901969,180.121 148.068969,178.779 C150.235969,177.437 151.995969,175.6055 153.348969,173.2845 C154.701969,170.9635 155.686469,168.296 156.302469,165.282 C156.918469,162.268 157.226469,159.1 157.226469,155.778 C157.226469,152.456 156.918469,149.2825 156.302469,146.2575 C155.686469,143.2325 154.701969,140.543 153.348969,138.189 C151.995969,135.835 150.235969,133.9815 148.068969,132.6285 C145.901969,131.2755 143.267469,130.599 140.165469,130.599 C137.063469,130.599 134.428969,131.2755 132.261969,132.6285 C130.094969,133.9815 128.334969,135.835 126.981969,138.189 C125.628969,140.543 124.644469,143.2325 124.028469,146.2575 C123.412469,149.2825 123.104469,152.456 123.104469,155.778 C123.104469,159.1 123.412469,162.268 124.028469,165.282 C124.644469,168.296 125.628969,170.9635 126.981969,173.2845 C128.334969,175.6055 130.094969,177.437 132.261969,178.779 C134.428969,180.121 137.063469,180.792 140.165469,180.792 Z M140.165469,172.839 C138.713469,172.839 137.481469,172.2725 136.469469,171.1395 C135.457469,170.0065 134.698469,168.1915 134.192469,165.6945 C133.686469,163.1975 133.433469,159.892 133.433469,155.778 C133.433469,151.664 133.686469,148.3585 134.192469,145.8615 C134.698469,143.3645 135.457469,141.544 136.469469,140.4 C137.481469,139.256 138.713469,138.684 140.165469,138.684 C141.639469,138.684 142.876969,139.256 143.877969,140.4 C144.878969,141.544 145.632469,143.3645 146.138469,145.8615 C146.644469,148.3585 146.897469,151.664 146.897469,155.778 C146.897469,159.87 146.644469,163.17 146.138469,165.678 C145.632469,168.186 144.878969,170.0065 143.877969,171.1395 C142.876969,172.2725 141.639469,172.839 140.165469,172.839 Z M196.509594,180 L196.509594,172.179 L174.927594,172.179 C175.125594,171.739 175.659094,171.101 176.528094,170.265 C177.397094,169.429 178.568594,168.406 180.042594,167.196 C181.516594,165.986 183.254594,164.589 185.256594,163.005 C186.444594,162.059 187.709594,160.9975 189.051594,159.8205 C190.393594,158.6435 191.653094,157.34 192.830094,155.91 C194.007094,154.48 194.964094,152.9235 195.701094,151.2405 C196.438094,149.5575 196.806594,147.748 196.806594,145.812 C196.806594,142.93 196.190594,140.345 194.958594,138.057 C193.726594,135.769 191.884094,133.954 189.431094,132.612 C186.978094,131.27 183.925594,130.599 180.273594,130.599 C176.511594,130.599 173.327094,131.2975 170.720094,132.6945 C168.113094,134.0915 166.133094,136.088 164.780094,138.684 C163.427094,141.28 162.750594,144.36 162.750594,147.924 L162.750594,147.924 L172.980594,147.924 C172.980594,146.054 173.200594,144.4205 173.640594,143.0235 C174.080594,141.6265 174.823094,140.5375 175.868094,139.7565 C176.913094,138.9755 178.326594,138.585 180.108594,138.585 C182.330594,138.585 183.953094,139.234 184.976094,140.532 C185.999094,141.83 186.510594,143.557 186.510594,145.713 C186.510594,147.429 186.032094,149.0625 185.075094,150.6135 C184.118094,152.1645 182.913594,153.6275 181.461594,155.0025 C180.009594,156.3775 178.513594,157.703 176.973594,158.979 C175.675594,160.057 174.262094,161.2285 172.733094,162.4935 C171.204094,163.7585 169.746594,164.996 168.360594,166.206 C166.974594,167.416 165.797594,168.4995 164.829594,169.4565 C163.861594,170.4135 163.278594,171.134 163.080594,171.618 L163.080594,171.618 L163.080594,180 L196.509594,180 Z M221.134063,180.792 C225.006063,180.792 228.168563,180.0935 230.621563,178.6965 C233.074563,177.2995 234.884063,175.4515 236.050063,173.1525 C237.216063,170.8535 237.799063,168.351 237.799063,165.645 C237.799063,163.533 237.430563,161.641 236.693563,159.969 C235.956563,158.297 234.889563,156.955 233.492563,155.943 C232.095563,154.931 230.451063,154.392 228.559063,154.326 C230.451063,154.238 232.095563,153.721 233.492563,152.775 C234.889563,151.829 235.956563,150.575 236.693563,149.013 C237.430563,147.451 237.799063,145.746 237.799063,143.898 C237.799063,141.632 237.227063,139.487 236.083063,137.463 C234.939063,135.439 233.146063,133.789 230.704063,132.513 C228.262063,131.237 225.105063,130.599 221.233063,130.599 C218.175063,130.599 215.557063,131.017 213.379063,131.853 C211.201063,132.689 209.430063,133.8385 208.066063,135.3015 C206.702063,136.7645 205.701063,138.4475 205.063063,140.3505 C204.425063,142.2535 204.106063,144.261 204.106063,146.373 L204.106063,146.373 L214.336063,146.373 C214.336063,143.425 215.007063,141.39 216.349063,140.268 C217.691063,139.146 219.385063,138.585 221.431063,138.585 C223.213063,138.585 224.676063,139.047 225.820063,139.971 C226.964063,140.895 227.536063,142.38 227.536063,144.426 C227.536063,145.284 227.409563,146.1145 227.156563,146.9175 C226.903563,147.7205 226.491063,148.4355 225.919063,149.0625 C225.347063,149.6895 224.593563,150.1845 223.658563,150.5475 C222.723563,150.9105 221.574063,151.092 220.210063,151.092 L220.210063,151.092 L218.494063,151.092 L218.494063,158.253 L220.210063,158.253 C221.596063,158.253 222.762063,158.4125 223.708063,158.7315 C224.654063,159.0505 225.402063,159.518 225.952063,160.134 C226.502063,160.75 226.903563,161.498 227.156563,162.378 C227.409563,163.258 227.536063,164.259 227.536063,165.381 C227.536063,168.021 226.958563,169.924 225.803563,171.09 C224.648563,172.256 223.136063,172.839 221.266063,172.839 C219.836063,172.839 218.604063,172.597 217.570063,172.113 C216.536063,171.629 215.738563,170.771 215.177563,169.539 C214.616563,168.307 214.336063,166.58 214.336063,164.358 L214.336063,164.358 L214.336063,164.226 L204.106063,164.226 L204.106063,164.226 L204.106063,164.358 C204.106063,166.602 204.375563,168.7085 204.914563,170.6775 C205.453563,172.6465 206.366563,174.39 207.653563,175.908 C208.940563,177.426 210.684063,178.6195 212.884063,179.4885 C215.084063,180.3575 217.834063,180.792 221.134063,180.792 Z" fill="#FFFFFF" fill-rule="nonzero"></path>
            </g>
        </g>
    </g>
</svg>