<?xml version="1.0" encoding="UTF-8"?>
<svg width="323px" height="323px" viewBox="0 0 323 323" version="1.1" xmlns="http://www.w3.org/2000/svg" xmlns:xlink="http://www.w3.org/1999/xlink">
    <title>2023</title>
    <g id="Page-1" stroke="none" stroke-width="1" fill="none" fill-rule="evenodd">
        <g id="Artboard" transform="translate(-88.000000, -88.000000)">
            <g id="2023" transform="translate(88.000000, 88.000000)">
                <path d="M161.5,2.8814484 L182.914713,60.7516946 L226.015977,16.5947427 L222.041342,78.1719919 L279.376556,55.3634724 L250.699822,110.000459 L312.355207,112.484172 L263.934843,150.733664 L319.249623,178.080153 L259.457949,193.328467 L298.867695,240.809276 L238.043235,230.419839 L254.733645,289.825104 L203.393501,255.594344 L194.478651,316.652356 L161.5,264.499082 L128.521349,316.652356 L119.606499,255.594344 L68.2663546,289.825104 L84.9567648,230.419839 L24.1323048,240.809276 L63.5420514,193.328467 L3.75037742,178.080153 L59.0651573,150.733664 L10.6447929,112.484172 L72.300178,110.000459 L43.6234442,55.3634724 L100.958658,78.1719919 L96.9840228,16.5947427 L140.085287,60.7516946 L161.5,2.8814484 Z" id="Star" stroke="#FFFFFF" stroke-width="2" fill="#000000"></path>
                <text font-family="EpilogueRoman-Bold, Epilogue" font-size="66" font-weight="bold" fill="#FFFFFF">
                    <tspan x="80" y="180">2023</tspan>
                </text>
            </g>
        </g>
    </g>
</svg>